<svg width="134" height="15" viewBox="0 0 134 15" fill="none" xmlns="http://www.w3.org/2000/svg">
<path d="M6.53628 12.2001C5.62478 12.2001 4.77443 12.05 3.98521 11.7499C3.20711 11.4498 2.52904 11.0274 1.95102 10.4827C1.38412 9.93803 0.939491 9.29887 0.617134 8.56523C0.305892 7.83159 0.150272 7.03126 0.150272 6.16423C0.150272 5.2972 0.305892 4.49686 0.617134 3.76322C0.939491 3.02958 1.38968 2.39043 1.9677 1.84575C2.54572 1.30108 3.22378 0.878683 4.00188 0.578557C4.77999 0.278432 5.62478 0.12837 6.53628 0.12837C7.45888 0.12837 8.30368 0.278432 9.07067 0.578557C9.84877 0.878683 10.5213 1.30108 11.0882 1.84575C11.6662 2.37931 12.1164 3.01291 12.4387 3.74655C12.7611 4.48019 12.9223 5.28608 12.9223 6.16423C12.9223 7.03126 12.7611 7.83715 12.4387 8.5819C12.1164 9.31554 11.6662 9.9547 11.0882 10.4994C10.5213 11.0329 9.84877 11.4498 9.07067 11.7499C8.30368 12.05 7.45888 12.2001 6.53628 12.2001ZM10.3545 14.6845C9.89879 14.6845 9.46528 14.6344 9.05399 14.5344C8.65383 14.4344 8.25366 14.2732 7.85349 14.0509C7.46444 13.8285 7.05316 13.5284 6.61964 13.1505C6.19724 12.7725 5.73594 12.3057 5.23573 11.7499L8.07025 11.0329C8.37038 11.4442 8.64827 11.7721 8.90393 12.0167C9.15959 12.2612 9.40414 12.4335 9.63757 12.5336C9.88212 12.6336 10.1378 12.6836 10.4046 12.6836C11.116 12.6836 11.7496 12.3946 12.3054 11.8166L13.5059 13.2505C12.7166 14.2065 11.6662 14.6845 10.3545 14.6845ZM6.53628 9.89912C7.05872 9.89912 7.53669 9.8102 7.97021 9.63234C8.41484 9.45449 8.80389 9.19883 9.13736 8.86536C9.47084 8.53188 9.7265 8.13727 9.90435 7.68153C10.0933 7.21467 10.1878 6.7089 10.1878 6.16423C10.1878 5.60844 10.0933 5.10267 9.90435 4.64693C9.7265 4.19118 9.47084 3.79657 9.13736 3.4631C8.80389 3.12962 8.41484 2.87396 7.97021 2.69611C7.53669 2.51826 7.05872 2.42933 6.53628 2.42933C6.01383 2.42933 5.5303 2.51826 5.08567 2.69611C4.64104 2.87396 4.25199 3.12962 3.91851 3.4631C3.59616 3.79657 3.34049 4.19118 3.15153 4.64693C2.97367 5.10267 2.88475 5.60844 2.88475 6.16423C2.88475 6.7089 2.97367 7.21467 3.15153 7.68153C3.34049 8.13727 3.59616 8.53188 3.91851 8.86536C4.25199 9.19883 4.64104 9.45449 5.08567 9.63234C5.5303 9.8102 6.01383 9.89912 6.53628 9.89912ZM14.9523 12V0.328453H20.2545C21.5217 0.328453 22.6388 0.573 23.6059 1.06209C24.573 1.54007 25.3289 2.21257 25.8735 3.0796C26.4182 3.94663 26.6905 4.97484 26.6905 6.16423C26.6905 7.3425 26.4182 8.3707 25.8735 9.24885C25.3289 10.1159 24.573 10.7939 23.6059 11.283C22.6388 11.761 21.5217 12 20.2545 12H14.9523ZM17.6534 9.78241H20.1211C20.8992 9.78241 21.5717 9.6379 22.1386 9.34889C22.7167 9.04877 23.1613 8.62637 23.4725 8.08169C23.7949 7.53702 23.9561 6.89787 23.9561 6.16423C23.9561 5.41947 23.7949 4.78031 23.4725 4.24676C23.1613 3.70209 22.7167 3.28525 22.1386 2.99624C21.5717 2.69611 20.8992 2.54605 20.1211 2.54605H17.6534V9.78241ZM27.0308 12L32.233 0.328453H34.9007L40.1196 12H37.2851L33.0166 1.69569H34.0837L29.7986 12H27.0308ZM29.6319 9.49895L30.3488 7.4481H36.3513L37.085 9.49895H29.6319ZM43.5153 12V7.23134L44.1322 8.86536L38.9967 0.328453H41.8646L45.7996 6.88119H44.1489L48.1005 0.328453H50.7516L45.6162 8.86536L46.2164 7.23134V12H43.5153ZM59.1049 5.58065H64.7072V7.74822H59.1049V5.58065ZM59.305 12H56.6038V0.328453H65.4242V2.49603H59.305V12ZM67.2528 12V0.328453H69.9539V12H67.2528ZM72.7238 12V0.328453H74.9581L81.8443 8.73197H80.7605V0.328453H83.4283V12H81.2107L74.3078 3.59649H75.3916V12H72.7238ZM84.6558 12L89.858 0.328453H92.5257L97.7446 12H94.9101L90.6416 1.69569H91.7087L87.4236 12H84.6558ZM87.2569 9.49895L87.9738 7.4481H93.9763L94.71 9.49895H87.2569ZM98.9555 12V0.328453H101.19L108.076 8.73197H106.992V0.328453H109.66V12H107.442L100.54 3.59649H101.623V12H98.9555ZM118.007 12.2001C117.107 12.2001 116.267 12.0556 115.489 11.7666C114.722 11.4664 114.055 11.044 113.489 10.4994C112.922 9.9547 112.477 9.31554 112.155 8.5819C111.843 7.84826 111.688 7.04237 111.688 6.16423C111.688 5.28608 111.843 4.48019 112.155 3.74655C112.477 3.01291 112.922 2.37375 113.489 1.82908C114.067 1.28441 114.739 0.867567 115.506 0.578557C116.273 0.278432 117.112 0.12837 118.024 0.12837C119.035 0.12837 119.947 0.306222 120.758 0.661926C121.581 1.00651 122.27 1.51784 122.826 2.1959L121.092 3.79657C120.692 3.34082 120.247 3.00179 119.758 2.77948C119.269 2.54605 118.735 2.42933 118.157 2.42933C117.612 2.42933 117.112 2.51826 116.657 2.69611C116.201 2.87396 115.806 3.12962 115.473 3.4631C115.139 3.79657 114.878 4.19118 114.689 4.64693C114.511 5.10267 114.422 5.60844 114.422 6.16423C114.422 6.72001 114.511 7.22578 114.689 7.68153C114.878 8.13727 115.139 8.53188 115.473 8.86536C115.806 9.19883 116.201 9.45449 116.657 9.63234C117.112 9.8102 117.612 9.89912 118.157 9.89912C118.735 9.89912 119.269 9.78796 119.758 9.56565C120.247 9.33222 120.692 8.98207 121.092 8.51521L122.826 10.1159C122.27 10.7939 121.581 11.3108 120.758 11.6665C119.947 12.0222 119.03 12.2001 118.007 12.2001ZM127.134 5.03042H132.753V7.1313H127.134V5.03042ZM127.334 9.83243H133.687V12H124.65V0.328453H133.47V2.49603H127.334V9.83243Z" fill="url(#paint0_linear_582_44309)"/>
<defs>
<linearGradient id="paint0_linear_582_44309" x1="-0.5" y1="6" x2="134.5" y2="6" gradientUnits="userSpaceOnUse">
<stop stop-color="#146CFF"/>
<stop offset="1" stop-color="#BC67FF"/>
</linearGradient>
</defs>
</svg>
