<svg xmlns="http://www.w3.org/2000/svg" width="41" height="40" viewBox="0 0 41 40" fill="none">
  <path d="M30.844 12.9013L30.8523 16.6457L34.8703 20.6705L29.0609 26.4897L29.0364 14.8262L29.028 11.0822L29.0066 1.2L24.5039 3.80336L24.5092 6.55523L20.4991 2.53881L2.40002 20.6705L11.9031 30.1894L16.4154 34.7093L18.2283 36.5253L20.4991 38.8L22.7375 36.5582L22.7586 36.5367L22.752 32.8094L22.7274 32.834L22.6665 9.15376L18.1656 11.7589L18.2182 32.7813L16.4106 30.9701L16.3957 17.0319L11.8913 19.6384L11.8979 26.4502L6.12802 20.6705L20.4991 6.2749L24.5171 10.2997L24.5618 30.9965L24.5684 34.7243L29.0675 30.2175L30.8769 28.4046L38.6 20.6705L30.844 12.9013Z" fill="url(#paint0_linear_582_44307)"/>
  <defs>
    <linearGradient id="paint0_linear_582_44307" x1="2.40002" y1="20" x2="38.6" y2="20" gradientUnits="userSpaceOnUse">
      <stop stop-color="#146CFF"/>
      <stop offset="1" stop-color="#BC67FF"/>
    </linearGradient>
  </defs>
</svg>