<svg xmlns="http://www.w3.org/2000/svg" width="24" height="24" viewBox="0 0 24 24" fill="none">
<path fill-rule="evenodd" clip-rule="evenodd" d="M15.5021 4.14016C13.8072 3.38497 11.9136 3.19788 10.1037 3.6068C8.29379 4.01573 6.66456 4.99875 5.45898 6.40927C4.25341 7.81979 3.53609 9.58223 3.414 11.4337C3.29191 13.2852 3.7716 15.1266 4.78152 16.6832C5.79145 18.2398 7.27749 19.4283 9.01803 20.0713C10.7586 20.7144 12.6603 20.7775 14.4397 20.2514C16.2191 19.7253 17.7807 18.6381 18.8917 17.152C20.0028 15.6658 20.6036 13.8603 20.6046 12.0048V11.1494C20.6046 10.7641 20.917 10.4517 21.3023 10.4517C21.6876 10.4517 22 10.7641 22 11.1494V12.0052C21.9988 14.1616 21.3005 16.2603 20.0093 17.9874C18.7182 19.7146 16.9033 20.9781 14.8354 21.5895C12.7674 22.2009 10.5573 22.1275 8.53447 21.3802C6.51168 20.6329 4.78465 19.2517 3.61096 17.4427C2.43727 15.6336 1.87979 13.4937 2.02168 11.3419C2.16356 9.19018 2.99721 7.14194 4.39828 5.50269C5.79935 3.86343 7.69278 2.721 9.79619 2.24576C11.8996 1.77052 14.1003 1.98795 16.07 2.86561C16.422 3.02244 16.5801 3.43489 16.4233 3.78684C16.2665 4.1388 15.8541 4.29699 15.5021 4.14016ZM21.7954 4.06978C22.068 4.3421 22.0682 4.78384 21.7959 5.05644L12.4936 14.3681C12.3628 14.499 12.1853 14.5726 12.0002 14.5727C11.8151 14.5727 11.6376 14.4992 11.5067 14.3683L8.71598 11.5776C8.44352 11.3052 8.44352 10.8634 8.71598 10.591C8.98843 10.3185 9.43018 10.3185 9.70264 10.591L11.9998 12.8881L20.8087 4.07027C21.0811 3.79768 21.5228 3.79746 21.7954 4.06978Z" fill="#65EC9B"/>
</svg>