<svg width="123" height="123" viewBox="0 0 123 123" fill="none" xmlns="http://www.w3.org/2000/svg">
<g clip-path="url(#clip0_363_40961)">
<path d="M72.8327 45.26L63.9858 9.92757C63.3381 7.34078 59.662 7.34077 59.0143 9.92756L50.1674 45.26L61.5 54.0861L72.8327 45.26Z" fill="#146AFF"/>
<path d="M77.7403 72.8325L113.073 63.9856C115.66 63.3379 115.66 59.6618 113.073 59.0141L77.7403 50.1672L68.8966 61.4999L77.7403 72.8325Z" fill="#146AFF"/>
<path d="M45.26 50.1673L9.92757 59.0142C7.34078 59.6619 7.34077 63.338 9.92756 63.9857L45.26 72.8326L54.0861 61.5L45.26 50.1673Z" fill="#146AFF"/>
<path d="M50.1674 77.74L59.0143 113.072C59.662 115.659 63.3381 115.659 63.9858 113.072L72.8327 77.74L61.5 68.8963L50.1674 77.74Z" fill="#146AFF"/>
<path d="M45.2593 72.8327L30.5108 91.7693C30.1399 92.2455 30.7538 92.8594 31.23 92.4885L50.1666 77.74L49.1781 73.8212L45.2593 72.8327Z" fill="#146AFF"/>
<path d="M77.9454 73.0965C77.8205 72.9362 77.6127 72.8648 77.4157 72.9145L74.1179 73.7464C73.9351 73.7925 73.7924 73.9352 73.7463 74.1179L72.9144 77.4158C72.8647 77.6128 72.9361 77.8206 73.0964 77.9454L91.7692 92.4885C92.2454 92.8594 92.8594 92.2455 92.4884 91.7693L77.9454 73.0965Z" fill="#146AFF"/>
<path d="M77.7399 50.1673L92.4885 31.2308C92.8594 30.7545 92.2454 30.1406 91.7692 30.5115L72.8326 45.26L73.8211 49.1788L77.7399 50.1673Z" fill="#146AFF"/>
<path d="M50.1666 45.2602L31.23 30.5117C30.7538 30.1407 30.1399 30.7547 30.5108 31.2309L45.2593 50.1675L49.1781 49.179L50.1666 45.2602Z" fill="#146AFF"/>
</g>
<defs>
<clipPath id="clip0_363_40961">
<rect width="123" height="123" fill="white"/>
</clipPath>
</defs>
</svg>
