<svg width="314" height="56" viewBox="0 0 314 56" fill="none" xmlns="http://www.w3.org/2000/svg">
<path d="M5.328 18L0.276 0.719999H3.312L6.756 13.2L10.188 0.743999L13.224 0.719999L16.668 13.2L20.1 0.719999H23.136L18.096 18H15.24L11.7 5.712L8.184 18H5.328ZM29.5564 18.36C28.2444 18.36 27.0924 18.076 26.1004 17.508C25.1084 16.94 24.3324 16.152 23.7724 15.144C23.2204 14.136 22.9444 12.976 22.9444 11.664C22.9444 10.248 23.2164 9.02 23.7604 7.98C24.3044 6.932 25.0604 6.12 26.0284 5.544C26.9964 4.968 28.1164 4.68 29.3884 4.68C30.7324 4.68 31.8724 4.996 32.8084 5.628C33.7524 6.252 34.4524 7.136 34.9084 8.28C35.3644 9.424 35.5364 10.772 35.4244 12.324H32.5564V11.268C32.5484 9.86 32.3004 8.832 31.8124 8.184C31.3244 7.536 30.5564 7.212 29.5084 7.212C28.3244 7.212 27.4444 7.58 26.8684 8.316C26.2924 9.044 26.0044 10.112 26.0044 11.52C26.0044 12.832 26.2924 13.848 26.8684 14.568C27.4444 15.288 28.2844 15.648 29.3884 15.648C30.1004 15.648 30.7124 15.492 31.2244 15.18C31.7444 14.86 32.1444 14.4 32.4244 13.8L35.2804 14.664C34.7844 15.832 34.0164 16.74 32.9764 17.388C31.9444 18.036 30.8044 18.36 29.5564 18.36ZM25.0924 12.324V10.14H34.0084V12.324H25.0924ZM38.3419 18V0.36H41.2339V18H38.3419ZM50.4564 18.36C49.1204 18.36 47.9804 18.064 47.0364 17.472C46.0924 16.872 45.3684 16.056 44.8644 15.024C44.3684 13.992 44.1164 12.824 44.1084 11.52C44.1164 10.192 44.3764 9.016 44.8884 7.992C45.4084 6.96 46.1444 6.152 47.0964 5.568C48.0484 4.976 49.1804 4.68 50.4924 4.68C51.9644 4.68 53.2084 5.052 54.2244 5.796C55.2484 6.532 55.9164 7.54 56.2284 8.82L53.3484 9.6C53.1244 8.904 52.7524 8.364 52.2324 7.98C51.7124 7.588 51.1204 7.392 50.4564 7.392C49.7044 7.392 49.0844 7.572 48.5964 7.932C48.1084 8.284 47.7484 8.772 47.5164 9.396C47.2844 10.02 47.1684 10.728 47.1684 11.52C47.1684 12.752 47.4444 13.748 47.9964 14.508C48.5484 15.268 49.3684 15.648 50.4564 15.648C51.2244 15.648 51.8284 15.472 52.2684 15.12C52.7164 14.768 53.0524 14.26 53.2764 13.596L56.2284 14.256C55.8284 15.576 55.1284 16.592 54.1284 17.304C53.1284 18.008 51.9044 18.36 50.4564 18.36ZM64.0056 18.36C62.7096 18.36 61.5776 18.068 60.6096 17.484C59.6416 16.9 58.8896 16.096 58.3536 15.072C57.8256 14.04 57.5616 12.856 57.5616 11.52C57.5616 10.16 57.8336 8.968 58.3776 7.944C58.9216 6.92 59.6776 6.12 60.6456 5.544C61.6136 4.968 62.7336 4.68 64.0056 4.68C65.3096 4.68 66.4456 4.972 67.4136 5.556C68.3816 6.14 69.1336 6.948 69.6696 7.98C70.2056 9.004 70.4736 10.184 70.4736 11.52C70.4736 12.864 70.2016 14.052 69.6576 15.084C69.1216 16.108 68.3696 16.912 67.4016 17.496C66.4336 18.072 65.3016 18.36 64.0056 18.36ZM64.0056 15.648C65.1576 15.648 66.0136 15.264 66.5736 14.496C67.1336 13.728 67.4136 12.736 67.4136 11.52C67.4136 10.264 67.1296 9.264 66.5616 8.52C65.9936 7.768 65.1416 7.392 64.0056 7.392C63.2296 7.392 62.5896 7.568 62.0856 7.92C61.5896 8.264 61.2216 8.748 60.9816 9.372C60.7416 9.988 60.6216 10.704 60.6216 11.52C60.6216 12.776 60.9056 13.78 61.4736 14.532C62.0496 15.276 62.8936 15.648 64.0056 15.648ZM88.6815 18V10.128C88.6815 9.24 88.4615 8.548 88.0215 8.052C87.5815 7.548 86.9855 7.296 86.2335 7.296C85.7695 7.296 85.3535 7.404 84.9855 7.62C84.6175 7.828 84.3255 8.14 84.1095 8.556C83.8935 8.964 83.7855 9.452 83.7855 10.02L82.5015 9.264C82.4935 8.368 82.6935 7.58 83.1015 6.9C83.5175 6.212 84.0775 5.676 84.7815 5.292C85.4855 4.908 86.2695 4.716 87.1335 4.716C88.5655 4.716 89.6615 5.148 90.4215 6.012C91.1895 6.868 91.5735 7.996 91.5735 9.396V18H88.6815ZM73.0935 18V5.04H75.6495V9.06H76.0095V18H73.0935ZM80.9055 18V10.164C80.9055 9.26 80.6855 8.556 80.2455 8.052C79.8055 7.548 79.2055 7.296 78.4455 7.296C77.7095 7.296 77.1175 7.548 76.6695 8.052C76.2295 8.556 76.0095 9.212 76.0095 10.02L74.7135 9.156C74.7135 8.316 74.9215 7.56 75.3375 6.888C75.7535 6.216 76.3135 5.688 77.0175 5.304C77.7295 4.912 78.5255 4.716 79.4055 4.716C80.3735 4.716 81.1815 4.924 81.8295 5.34C82.4855 5.748 82.9735 6.308 83.2935 7.02C83.6215 7.724 83.7855 8.52 83.7855 9.408V18H80.9055ZM100.385 18.36C99.0725 18.36 97.9205 18.076 96.9285 17.508C95.9365 16.94 95.1605 16.152 94.6005 15.144C94.0485 14.136 93.7725 12.976 93.7725 11.664C93.7725 10.248 94.0445 9.02 94.5885 7.98C95.1325 6.932 95.8885 6.12 96.8565 5.544C97.8245 4.968 98.9445 4.68 100.217 4.68C101.561 4.68 102.701 4.996 103.637 5.628C104.581 6.252 105.281 7.136 105.737 8.28C106.193 9.424 106.365 10.772 106.253 12.324H103.385V11.268C103.377 9.86 103.129 8.832 102.641 8.184C102.153 7.536 101.385 7.212 100.337 7.212C99.1525 7.212 98.2725 7.58 97.6965 8.316C97.1205 9.044 96.8325 10.112 96.8325 11.52C96.8325 12.832 97.1205 13.848 97.6965 14.568C98.2725 15.288 99.1125 15.648 100.217 15.648C100.929 15.648 101.541 15.492 102.053 15.18C102.573 14.86 102.973 14.4 103.253 13.8L106.109 14.664C105.613 15.832 104.845 16.74 103.805 17.388C102.773 18.036 101.633 18.36 100.385 18.36ZM95.9205 12.324V10.14H104.837V12.324H95.9205ZM121.331 18C120.475 18.16 119.635 18.228 118.811 18.204C117.995 18.188 117.263 18.04 116.615 17.76C115.967 17.472 115.475 17.02 115.139 16.404C114.843 15.844 114.687 15.272 114.671 14.688C114.655 14.104 114.647 13.444 114.647 12.708V1.44H117.527V12.54C117.527 13.06 117.531 13.516 117.539 13.908C117.555 14.3 117.639 14.62 117.791 14.868C118.079 15.348 118.539 15.616 119.171 15.672C119.803 15.728 120.523 15.696 121.331 15.576V18ZM112.295 7.308V5.04H121.331V7.308H112.295ZM129.185 18.36C127.889 18.36 126.757 18.068 125.789 17.484C124.821 16.9 124.069 16.096 123.533 15.072C123.005 14.04 122.741 12.856 122.741 11.52C122.741 10.16 123.013 8.968 123.557 7.944C124.101 6.92 124.857 6.12 125.825 5.544C126.793 4.968 127.913 4.68 129.185 4.68C130.489 4.68 131.625 4.972 132.593 5.556C133.561 6.14 134.313 6.948 134.849 7.98C135.385 9.004 135.653 10.184 135.653 11.52C135.653 12.864 135.381 14.052 134.837 15.084C134.301 16.108 133.549 16.912 132.581 17.496C131.613 18.072 130.481 18.36 129.185 18.36ZM129.185 15.648C130.337 15.648 131.193 15.264 131.753 14.496C132.313 13.728 132.593 12.736 132.593 11.52C132.593 10.264 132.309 9.264 131.741 8.52C131.173 7.768 130.321 7.392 129.185 7.392C128.409 7.392 127.769 7.568 127.265 7.92C126.769 8.264 126.401 8.748 126.161 9.372C125.921 9.988 125.801 10.704 125.801 11.52C125.801 12.776 126.085 13.78 126.653 14.532C127.229 15.276 128.073 15.648 129.185 15.648ZM141.902 18L147.35 0.719999H151.586L157.034 18H154.058L149.114 2.496H149.762L144.878 18H141.902ZM144.938 14.256V11.556H154.01V14.256H144.938ZM159.203 18V0.719999H166.055C167.223 0.719999 168.179 0.955999 168.923 1.428C169.675 1.892 170.231 2.488 170.591 3.216C170.959 3.944 171.143 4.696 171.143 5.472C171.143 6.424 170.915 7.232 170.459 7.896C170.011 8.56 169.399 9.008 168.623 9.24V8.64C169.711 8.888 170.535 9.404 171.095 10.188C171.663 10.972 171.947 11.864 171.947 12.864C171.947 13.888 171.751 14.784 171.359 15.552C170.967 16.32 170.383 16.92 169.607 17.352C168.839 17.784 167.887 18 166.751 18H159.203ZM162.131 15.276H166.391C166.895 15.276 167.347 15.176 167.747 14.976C168.147 14.768 168.459 14.48 168.683 14.112C168.915 13.736 169.031 13.292 169.031 12.78C169.031 12.316 168.931 11.9 168.731 11.532C168.531 11.164 168.239 10.872 167.855 10.656C167.471 10.432 167.011 10.32 166.475 10.32H162.131V15.276ZM162.131 7.62H166.019C166.435 7.62 166.807 7.54 167.135 7.38C167.463 7.22 167.723 6.984 167.915 6.672C168.107 6.36 168.203 5.976 168.203 5.52C168.203 4.92 168.011 4.42 167.627 4.02C167.243 3.62 166.707 3.42 166.019 3.42H162.131V7.62ZM174.344 18V0.719999H185.504V3.432H177.236V7.692H184.064V10.404H177.236V15.288H185.504V18H174.344ZM188.623 18V0.719999H191.515V15.288H199.147V18H188.623ZM211.185 18.36C209.921 18.36 208.781 18.14 207.765 17.7C206.757 17.26 205.925 16.632 205.269 15.816C204.621 14.992 204.209 14.016 204.033 12.888L207.033 12.432C207.289 13.456 207.813 14.248 208.605 14.808C209.405 15.368 210.325 15.648 211.365 15.648C211.981 15.648 212.561 15.552 213.105 15.36C213.649 15.168 214.089 14.888 214.425 14.52C214.769 14.152 214.941 13.7 214.941 13.164C214.941 12.924 214.901 12.704 214.821 12.504C214.741 12.296 214.621 12.112 214.461 11.952C214.309 11.792 214.109 11.648 213.861 11.52C213.621 11.384 213.341 11.268 213.021 11.172L208.557 9.852C208.173 9.74 207.757 9.592 207.309 9.408C206.869 9.216 206.449 8.956 206.049 8.628C205.657 8.292 205.333 7.868 205.077 7.356C204.829 6.836 204.705 6.196 204.705 5.436C204.705 4.324 204.985 3.392 205.545 2.64C206.113 1.88 206.873 1.312 207.825 0.935999C208.785 0.559999 209.849 0.375999 211.017 0.383999C212.201 0.391999 213.257 0.595999 214.185 0.995999C215.113 1.388 215.889 1.96 216.513 2.712C217.137 3.464 217.577 4.372 217.833 5.436L214.725 5.976C214.597 5.368 214.349 4.852 213.981 4.428C213.621 3.996 213.177 3.668 212.649 3.444C212.129 3.22 211.573 3.1 210.981 3.084C210.405 3.076 209.869 3.164 209.373 3.348C208.885 3.524 208.489 3.78 208.185 4.116C207.889 4.452 207.741 4.844 207.741 5.292C207.741 5.716 207.869 6.064 208.125 6.336C208.381 6.6 208.697 6.812 209.073 6.972C209.457 7.124 209.845 7.252 210.237 7.356L213.333 8.22C213.757 8.332 214.233 8.484 214.761 8.676C215.289 8.868 215.797 9.136 216.285 9.48C216.773 9.824 217.173 10.276 217.485 10.836C217.805 11.396 217.965 12.108 217.965 12.972C217.965 13.868 217.777 14.656 217.401 15.336C217.033 16.008 216.533 16.568 215.901 17.016C215.269 17.464 214.545 17.8 213.729 18.024C212.921 18.248 212.073 18.36 211.185 18.36ZM228.159 18C227.303 18.16 226.463 18.228 225.639 18.204C224.823 18.188 224.091 18.04 223.443 17.76C222.795 17.472 222.303 17.02 221.967 16.404C221.671 15.844 221.515 15.272 221.499 14.688C221.483 14.104 221.475 13.444 221.475 12.708V1.44H224.355V12.54C224.355 13.06 224.359 13.516 224.367 13.908C224.383 14.3 224.467 14.62 224.619 14.868C224.907 15.348 225.367 15.616 225.999 15.672C226.631 15.728 227.351 15.696 228.159 15.576V18ZM219.123 7.308V5.04H228.159V7.308H219.123ZM234.57 18.36C233.634 18.36 232.842 18.184 232.194 17.832C231.546 17.472 231.054 16.996 230.718 16.404C230.39 15.812 230.226 15.16 230.226 14.448C230.226 13.824 230.33 13.264 230.538 12.768C230.746 12.264 231.066 11.832 231.498 11.472C231.93 11.104 232.49 10.804 233.178 10.572C233.698 10.404 234.306 10.252 235.002 10.116C235.706 9.98 236.466 9.856 237.282 9.744C238.106 9.624 238.966 9.496 239.862 9.36L238.83 9.948C238.838 9.052 238.638 8.392 238.23 7.968C237.822 7.544 237.134 7.332 236.166 7.332C235.582 7.332 235.018 7.468 234.474 7.74C233.93 8.012 233.55 8.48 233.334 9.144L230.694 8.316C231.014 7.22 231.622 6.34 232.518 5.676C233.422 5.012 234.638 4.68 236.166 4.68C237.318 4.68 238.33 4.868 239.202 5.244C240.082 5.62 240.734 6.236 241.158 7.092C241.39 7.548 241.53 8.016 241.578 8.496C241.626 8.968 241.65 9.484 241.65 10.044V18H239.118V15.192L239.538 15.648C238.954 16.584 238.27 17.272 237.486 17.712C236.71 18.144 235.738 18.36 234.57 18.36ZM235.146 16.056C235.802 16.056 236.362 15.94 236.826 15.708C237.29 15.476 237.658 15.192 237.93 14.856C238.21 14.52 238.398 14.204 238.494 13.908C238.646 13.54 238.73 13.12 238.746 12.648C238.77 12.168 238.782 11.78 238.782 11.484L239.67 11.748C238.798 11.884 238.05 12.004 237.426 12.108C236.802 12.212 236.266 12.312 235.818 12.408C235.37 12.496 234.974 12.596 234.63 12.708C234.294 12.828 234.01 12.968 233.778 13.128C233.546 13.288 233.366 13.472 233.238 13.68C233.118 13.888 233.058 14.132 233.058 14.412C233.058 14.732 233.138 15.016 233.298 15.264C233.458 15.504 233.69 15.696 233.994 15.84C234.306 15.984 234.69 16.056 235.146 16.056ZM244.75 18L244.774 0.719999H247.702V11.28L252.442 5.04H256.054L251.026 11.52L256.486 18H252.658L247.702 11.76V18H244.75ZM257.928 3.072V0.42H260.82V3.072H257.928ZM257.928 18V5.04H260.82V18H257.928ZM273.378 18V11.76C273.378 11.352 273.35 10.9 273.294 10.404C273.238 9.908 273.106 9.432 272.898 8.976C272.698 8.512 272.394 8.132 271.986 7.836C271.586 7.54 271.042 7.392 270.354 7.392C269.986 7.392 269.622 7.452 269.262 7.572C268.902 7.692 268.574 7.9 268.278 8.196C267.99 8.484 267.758 8.884 267.582 9.396C267.406 9.9 267.318 10.548 267.318 11.34L265.602 10.608C265.602 9.504 265.814 8.504 266.238 7.608C266.67 6.712 267.302 6 268.134 5.472C268.966 4.936 269.99 4.668 271.206 4.668C272.166 4.668 272.958 4.828 273.582 5.148C274.206 5.468 274.702 5.876 275.07 6.372C275.438 6.868 275.71 7.396 275.886 7.956C276.062 8.516 276.174 9.048 276.222 9.552C276.278 10.048 276.306 10.452 276.306 10.764V18H273.378ZM264.39 18V5.04H266.97V9.06H267.318V18H264.39ZM284.886 24.12C284.166 24.12 283.474 24.008 282.81 23.784C282.154 23.56 281.562 23.236 281.034 22.812C280.506 22.396 280.074 21.892 279.738 21.3L282.402 19.98C282.65 20.452 282.998 20.8 283.446 21.024C283.902 21.256 284.386 21.372 284.898 21.372C285.498 21.372 286.034 21.264 286.506 21.048C286.978 20.84 287.342 20.528 287.598 20.112C287.862 19.704 287.986 19.192 287.97 18.576V14.892H288.33V5.04H290.862V18.624C290.862 18.952 290.846 19.264 290.814 19.56C290.79 19.864 290.746 20.16 290.682 20.448C290.49 21.288 290.122 21.976 289.578 22.512C289.034 23.056 288.358 23.46 287.55 23.724C286.75 23.988 285.862 24.12 284.886 24.12ZM284.634 18.36C283.442 18.36 282.402 18.06 281.514 17.46C280.626 16.86 279.938 16.044 279.45 15.012C278.962 13.98 278.718 12.816 278.718 11.52C278.718 10.208 278.962 9.04 279.45 8.016C279.946 6.984 280.646 6.172 281.55 5.58C282.454 4.98 283.518 4.68 284.742 4.68C285.974 4.68 287.006 4.98 287.838 5.58C288.678 6.172 289.314 6.984 289.746 8.016C290.178 9.048 290.394 10.216 290.394 11.52C290.394 12.808 290.178 13.972 289.746 15.012C289.314 16.044 288.67 16.86 287.814 17.46C286.958 18.06 285.898 18.36 284.634 18.36ZM285.078 15.768C285.854 15.768 286.478 15.592 286.95 15.24C287.43 14.88 287.778 14.38 287.994 13.74C288.218 13.1 288.33 12.36 288.33 11.52C288.33 10.672 288.218 9.932 287.994 9.3C287.778 8.66 287.438 8.164 286.974 7.812C286.51 7.452 285.91 7.272 285.174 7.272C284.398 7.272 283.758 7.464 283.254 7.848C282.75 8.224 282.378 8.736 282.138 9.384C281.898 10.024 281.778 10.736 281.778 11.52C281.778 12.312 281.894 13.032 282.126 13.68C282.366 14.32 282.73 14.828 283.218 15.204C283.706 15.58 284.326 15.768 285.078 15.768ZM304.756 18.36C303.796 18.36 302.888 18.22 302.032 17.94C301.184 17.652 300.476 17.2 299.908 16.584C299.452 16.08 299.116 15.532 298.9 14.94C298.692 14.34 298.576 13.7 298.552 13.02C298.552 12.356 298.648 11.712 298.84 11.088C299.04 10.464 299.344 9.912 299.752 9.432C299.912 9.24 300.084 9.072 300.268 8.928C300.46 8.776 300.652 8.64 300.844 8.52C300.372 7.992 300.012 7.48 299.764 6.984C299.524 6.488 299.404 5.904 299.404 5.232C299.404 4.224 299.676 3.32 300.22 2.52C300.764 1.72 301.504 1.144 302.44 0.792C302.848 0.639999 303.26 0.535999 303.676 0.48C304.1 0.423999 304.512 0.395998 304.912 0.395998C305.664 0.395998 306.388 0.511999 307.084 0.743999C307.78 0.967999 308.372 1.336 308.86 1.848C309.172 2.144 309.432 2.48 309.64 2.856C309.848 3.224 310.004 3.604 310.108 3.996L307.252 4.608C307.14 4.248 306.944 3.94 306.664 3.684C306.424 3.452 306.14 3.3 305.812 3.228C305.484 3.148 305.16 3.108 304.84 3.108C304.328 3.108 303.876 3.2 303.484 3.384C303.092 3.568 302.8 3.816 302.608 4.128C302.424 4.44 302.332 4.82 302.332 5.268C302.332 5.668 302.404 5.988 302.548 6.228C302.7 6.468 302.884 6.712 303.1 6.96C303.244 7.12 303.42 7.296 303.628 7.488C303.836 7.68 304.052 7.88 304.276 8.088L308.62 12.108C308.628 11.948 308.632 11.776 308.632 11.592C308.632 11.4 308.632 11.22 308.632 11.052V8.94H311.176V12.072C311.176 12.504 311.164 12.924 311.14 13.332C311.116 13.732 311.068 14.064 310.996 14.328L313.144 16.296L311.284 18.276L309.616 16.692C309.208 17.076 308.76 17.388 308.272 17.628C307.784 17.868 307.292 18.04 306.796 18.144C306.436 18.232 306.092 18.288 305.764 18.312C305.436 18.344 305.1 18.36 304.756 18.36ZM304.876 15.612C305.124 15.612 305.356 15.6 305.572 15.576C305.796 15.552 306.012 15.504 306.22 15.432C306.516 15.344 306.768 15.24 306.976 15.12C307.192 15 307.38 14.876 307.54 14.748L302.968 10.548C302.752 10.628 302.556 10.732 302.38 10.86C302.212 10.98 302.068 11.116 301.948 11.268C301.796 11.468 301.676 11.704 301.588 11.976C301.508 12.24 301.468 12.532 301.468 12.852C301.476 13.22 301.536 13.548 301.648 13.836C301.76 14.116 301.908 14.368 302.092 14.592C302.38 14.96 302.792 15.224 303.328 15.384C303.864 15.536 304.38 15.612 304.876 15.612ZM1.68 49V31.72H8.82C8.988 31.72 9.204 31.728 9.468 31.744C9.732 31.752 9.976 31.776 10.2 31.816C11.2 31.968 12.024 32.3 12.672 32.812C13.328 33.324 13.812 33.972 14.124 34.756C14.444 35.532 14.604 36.396 14.604 37.348C14.604 38.756 14.248 39.968 13.536 40.984C12.824 41.992 11.732 42.616 10.26 42.856L9.024 42.964H4.572V49H1.68ZM11.604 49L8.196 41.968L11.136 41.32L14.88 49H11.604ZM4.572 40.264H8.7C8.86 40.264 9.04 40.256 9.24 40.24C9.44 40.224 9.624 40.192 9.792 40.144C10.272 40.024 10.648 39.812 10.92 39.508C11.2 39.204 11.396 38.86 11.508 38.476C11.628 38.092 11.688 37.716 11.688 37.348C11.688 36.98 11.628 36.604 11.508 36.22C11.396 35.828 11.2 35.48 10.92 35.176C10.648 34.872 10.272 34.66 9.792 34.54C9.624 34.492 9.44 34.464 9.24 34.456C9.04 34.44 8.86 34.432 8.7 34.432H4.572V40.264ZM23.4158 49.36C22.1038 49.36 20.9518 49.076 19.9598 48.508C18.9678 47.94 18.1918 47.152 17.6318 46.144C17.0798 45.136 16.8038 43.976 16.8038 42.664C16.8038 41.248 17.0758 40.02 17.6198 38.98C18.1638 37.932 18.9198 37.12 19.8878 36.544C20.8558 35.968 21.9758 35.68 23.2478 35.68C24.5918 35.68 25.7318 35.996 26.6678 36.628C27.6118 37.252 28.3118 38.136 28.7678 39.28C29.2238 40.424 29.3958 41.772 29.2838 43.324H26.4158V42.268C26.4078 40.86 26.1598 39.832 25.6718 39.184C25.1838 38.536 24.4158 38.212 23.3678 38.212C22.1838 38.212 21.3038 38.58 20.7278 39.316C20.1518 40.044 19.8638 41.112 19.8638 42.52C19.8638 43.832 20.1518 44.848 20.7278 45.568C21.3038 46.288 22.1438 46.648 23.2478 46.648C23.9598 46.648 24.5718 46.492 25.0838 46.18C25.6038 45.86 26.0038 45.4 26.2838 44.8L29.1398 45.664C28.6438 46.832 27.8758 47.74 26.8358 48.388C25.8038 49.036 24.6638 49.36 23.4158 49.36ZM18.9518 43.324V41.14H27.8678V43.324H18.9518ZM34.2525 49L30.2925 36.016L33.1245 36.04L35.6565 44.356L38.2245 36.04H40.6605L43.2165 44.356L45.7605 36.04H48.5925L44.6325 49H42.3765L39.4365 40.084L36.5085 49H34.2525ZM53.6556 49.36C52.7196 49.36 51.9276 49.184 51.2796 48.832C50.6316 48.472 50.1396 47.996 49.8036 47.404C49.4756 46.812 49.3116 46.16 49.3116 45.448C49.3116 44.824 49.4156 44.264 49.6236 43.768C49.8316 43.264 50.1516 42.832 50.5836 42.472C51.0156 42.104 51.5756 41.804 52.2636 41.572C52.7836 41.404 53.3916 41.252 54.0876 41.116C54.7916 40.98 55.5516 40.856 56.3676 40.744C57.1916 40.624 58.0516 40.496 58.9476 40.36L57.9156 40.948C57.9236 40.052 57.7236 39.392 57.3156 38.968C56.9076 38.544 56.2196 38.332 55.2516 38.332C54.6676 38.332 54.1036 38.468 53.5596 38.74C53.0156 39.012 52.6356 39.48 52.4196 40.144L49.7796 39.316C50.0996 38.22 50.7076 37.34 51.6036 36.676C52.5076 36.012 53.7236 35.68 55.2516 35.68C56.4036 35.68 57.4156 35.868 58.2876 36.244C59.1676 36.62 59.8196 37.236 60.2436 38.092C60.4756 38.548 60.6156 39.016 60.6636 39.496C60.7116 39.968 60.7356 40.484 60.7356 41.044V49H58.2036V46.192L58.6236 46.648C58.0396 47.584 57.3556 48.272 56.5716 48.712C55.7956 49.144 54.8236 49.36 53.6556 49.36ZM54.2316 47.056C54.8876 47.056 55.4476 46.94 55.9116 46.708C56.3756 46.476 56.7436 46.192 57.0156 45.856C57.2956 45.52 57.4836 45.204 57.5796 44.908C57.7316 44.54 57.8156 44.12 57.8316 43.648C57.8556 43.168 57.8676 42.78 57.8676 42.484L58.7556 42.748C57.8836 42.884 57.1356 43.004 56.5116 43.108C55.8876 43.212 55.3516 43.312 54.9036 43.408C54.4556 43.496 54.0596 43.596 53.7156 43.708C53.3796 43.828 53.0956 43.968 52.8636 44.128C52.6316 44.288 52.4516 44.472 52.3236 44.68C52.2036 44.888 52.1436 45.132 52.1436 45.412C52.1436 45.732 52.2236 46.016 52.3836 46.264C52.5436 46.504 52.7756 46.696 53.0796 46.84C53.3916 46.984 53.7756 47.056 54.2316 47.056ZM63.8597 49V36.04H66.4157V39.196L66.1037 38.788C66.2637 38.356 66.4757 37.964 66.7397 37.612C67.0117 37.252 67.3357 36.956 67.7117 36.724C68.0317 36.508 68.3837 36.34 68.7677 36.22C69.1597 36.092 69.5597 36.016 69.9677 35.992C70.3757 35.96 70.7717 35.976 71.1557 36.04V38.74C70.7717 38.628 70.3277 38.592 69.8237 38.632C69.3277 38.672 68.8797 38.812 68.4797 39.052C68.0797 39.268 67.7517 39.544 67.4957 39.88C67.2477 40.216 67.0637 40.6 66.9437 41.032C66.8237 41.456 66.7637 41.916 66.7637 42.412V49H63.8597ZM78.4073 49.36C77.2153 49.36 76.1753 49.06 75.2873 48.46C74.3993 47.86 73.7113 47.044 73.2233 46.012C72.7353 44.98 72.4913 43.816 72.4913 42.52C72.4913 41.208 72.7353 40.04 73.2233 39.016C73.7193 37.984 74.4193 37.172 75.3233 36.58C76.2273 35.98 77.2913 35.68 78.5153 35.68C79.7473 35.68 80.7793 35.98 81.6113 36.58C82.4513 37.172 83.0873 37.984 83.5193 39.016C83.9513 40.048 84.1673 41.216 84.1673 42.52C84.1673 43.808 83.9513 44.972 83.5193 46.012C83.0873 47.044 82.4433 47.86 81.5873 48.46C80.7313 49.06 79.6713 49.36 78.4073 49.36ZM78.8513 46.768C79.6273 46.768 80.2513 46.592 80.7233 46.24C81.2033 45.88 81.5513 45.38 81.7673 44.74C81.9913 44.1 82.1033 43.36 82.1033 42.52C82.1033 41.672 81.9913 40.932 81.7673 40.3C81.5513 39.66 81.2113 39.164 80.7473 38.812C80.2833 38.452 79.6833 38.272 78.9473 38.272C78.1713 38.272 77.5313 38.464 77.0273 38.848C76.5233 39.224 76.1513 39.736 75.9113 40.384C75.6713 41.024 75.5513 41.736 75.5513 42.52C75.5513 43.312 75.6673 44.032 75.8993 44.68C76.1393 45.32 76.5033 45.828 76.9913 46.204C77.4793 46.58 78.0993 46.768 78.8513 46.768ZM82.1033 49V39.904H81.7433V31.72H84.6593V49H82.1033ZM92.8284 49V31.72H103.988V34.432H95.7204V38.692H102.548V41.404H95.7204V46.288H103.988V49H92.8284ZM110.492 49.36C109.556 49.36 108.764 49.184 108.116 48.832C107.468 48.472 106.976 47.996 106.64 47.404C106.312 46.812 106.148 46.16 106.148 45.448C106.148 44.824 106.252 44.264 106.46 43.768C106.668 43.264 106.988 42.832 107.42 42.472C107.852 42.104 108.412 41.804 109.1 41.572C109.62 41.404 110.228 41.252 110.924 41.116C111.628 40.98 112.388 40.856 113.204 40.744C114.028 40.624 114.888 40.496 115.784 40.36L114.752 40.948C114.76 40.052 114.56 39.392 114.152 38.968C113.744 38.544 113.056 38.332 112.088 38.332C111.504 38.332 110.94 38.468 110.396 38.74C109.852 39.012 109.472 39.48 109.256 40.144L106.616 39.316C106.936 38.22 107.544 37.34 108.44 36.676C109.344 36.012 110.56 35.68 112.088 35.68C113.24 35.68 114.252 35.868 115.124 36.244C116.004 36.62 116.656 37.236 117.08 38.092C117.312 38.548 117.452 39.016 117.5 39.496C117.548 39.968 117.572 40.484 117.572 41.044V49H115.04V46.192L115.46 46.648C114.876 47.584 114.192 48.272 113.408 48.712C112.632 49.144 111.66 49.36 110.492 49.36ZM111.068 47.056C111.724 47.056 112.284 46.94 112.748 46.708C113.212 46.476 113.58 46.192 113.852 45.856C114.132 45.52 114.32 45.204 114.416 44.908C114.568 44.54 114.652 44.12 114.668 43.648C114.692 43.168 114.704 42.78 114.704 42.484L115.592 42.748C114.72 42.884 113.972 43.004 113.348 43.108C112.724 43.212 112.188 43.312 111.74 43.408C111.292 43.496 110.896 43.596 110.552 43.708C110.216 43.828 109.932 43.968 109.7 44.128C109.468 44.288 109.288 44.472 109.16 44.68C109.04 44.888 108.98 45.132 108.98 45.412C108.98 45.732 109.06 46.016 109.22 46.264C109.38 46.504 109.612 46.696 109.916 46.84C110.228 46.984 110.612 47.056 111.068 47.056ZM120.696 49V36.04H123.252V39.196L122.94 38.788C123.1 38.356 123.312 37.964 123.576 37.612C123.848 37.252 124.172 36.956 124.548 36.724C124.868 36.508 125.22 36.34 125.604 36.22C125.996 36.092 126.396 36.016 126.804 35.992C127.212 35.96 127.608 35.976 127.992 36.04V38.74C127.608 38.628 127.164 38.592 126.66 38.632C126.164 38.672 125.716 38.812 125.316 39.052C124.916 39.268 124.588 39.544 124.332 39.88C124.084 40.216 123.9 40.6 123.78 41.032C123.66 41.456 123.6 41.916 123.6 42.412V49H120.696ZM139.246 49V42.76C139.246 42.352 139.218 41.9 139.162 41.404C139.106 40.908 138.974 40.432 138.766 39.976C138.566 39.512 138.262 39.132 137.854 38.836C137.454 38.54 136.91 38.392 136.222 38.392C135.854 38.392 135.49 38.452 135.13 38.572C134.77 38.692 134.442 38.9 134.146 39.196C133.858 39.484 133.626 39.884 133.45 40.396C133.274 40.9 133.186 41.548 133.186 42.34L131.47 41.608C131.47 40.504 131.682 39.504 132.106 38.608C132.538 37.712 133.17 37 134.002 36.472C134.834 35.936 135.858 35.668 137.074 35.668C138.034 35.668 138.826 35.828 139.45 36.148C140.074 36.468 140.57 36.876 140.938 37.372C141.306 37.868 141.578 38.396 141.754 38.956C141.93 39.516 142.042 40.048 142.09 40.552C142.146 41.048 142.174 41.452 142.174 41.764V49H139.246ZM130.258 49V36.04H132.838V40.06H133.186V49H130.258ZM145.545 34.072V31.42H148.437V34.072H145.545ZM145.545 49V36.04H148.437V49H145.545ZM160.996 49V42.76C160.996 42.352 160.968 41.9 160.912 41.404C160.856 40.908 160.724 40.432 160.516 39.976C160.316 39.512 160.012 39.132 159.604 38.836C159.204 38.54 158.66 38.392 157.972 38.392C157.604 38.392 157.24 38.452 156.88 38.572C156.52 38.692 156.192 38.9 155.896 39.196C155.608 39.484 155.376 39.884 155.2 40.396C155.024 40.9 154.936 41.548 154.936 42.34L153.22 41.608C153.22 40.504 153.432 39.504 153.856 38.608C154.288 37.712 154.92 37 155.752 36.472C156.584 35.936 157.608 35.668 158.824 35.668C159.784 35.668 160.576 35.828 161.2 36.148C161.824 36.468 162.32 36.876 162.688 37.372C163.056 37.868 163.328 38.396 163.504 38.956C163.68 39.516 163.792 40.048 163.84 40.552C163.896 41.048 163.924 41.452 163.924 41.764V49H160.996ZM152.008 49V36.04H154.588V40.06H154.936V49H152.008ZM172.503 55.12C171.783 55.12 171.091 55.008 170.427 54.784C169.771 54.56 169.179 54.236 168.651 53.812C168.123 53.396 167.691 52.892 167.355 52.3L170.019 50.98C170.267 51.452 170.615 51.8 171.063 52.024C171.519 52.256 172.003 52.372 172.515 52.372C173.115 52.372 173.651 52.264 174.123 52.048C174.595 51.84 174.959 51.528 175.215 51.112C175.479 50.704 175.603 50.192 175.587 49.576V45.892H175.947V36.04H178.479V49.624C178.479 49.952 178.463 50.264 178.431 50.56C178.407 50.864 178.363 51.16 178.299 51.448C178.107 52.288 177.739 52.976 177.195 53.512C176.651 54.056 175.975 54.46 175.167 54.724C174.367 54.988 173.479 55.12 172.503 55.12ZM172.251 49.36C171.059 49.36 170.019 49.06 169.131 48.46C168.243 47.86 167.555 47.044 167.067 46.012C166.579 44.98 166.335 43.816 166.335 42.52C166.335 41.208 166.579 40.04 167.067 39.016C167.563 37.984 168.263 37.172 169.167 36.58C170.071 35.98 171.135 35.68 172.359 35.68C173.591 35.68 174.623 35.98 175.455 36.58C176.295 37.172 176.931 37.984 177.363 39.016C177.795 40.048 178.011 41.216 178.011 42.52C178.011 43.808 177.795 44.972 177.363 46.012C176.931 47.044 176.287 47.86 175.431 48.46C174.575 49.06 173.515 49.36 172.251 49.36ZM172.695 46.768C173.471 46.768 174.095 46.592 174.567 46.24C175.047 45.88 175.395 45.38 175.611 44.74C175.835 44.1 175.947 43.36 175.947 42.52C175.947 41.672 175.835 40.932 175.611 40.3C175.395 39.66 175.055 39.164 174.591 38.812C174.127 38.452 173.527 38.272 172.791 38.272C172.015 38.272 171.375 38.464 170.871 38.848C170.367 39.224 169.995 39.736 169.755 40.384C169.515 41.024 169.395 41.736 169.395 42.52C169.395 43.312 169.511 44.032 169.743 44.68C169.983 45.32 170.347 45.828 170.835 46.204C171.323 46.58 171.943 46.768 172.695 46.768Z" fill="url(#paint0_linear_361_31638)"/>
<defs>
<linearGradient id="paint0_linear_361_31638" x1="0" y1="24" x2="314" y2="24" gradientUnits="userSpaceOnUse">
<stop stop-color="#25D5FF"/>
<stop offset="1" stop-color="#0042A5"/>
</linearGradient>
</defs>
</svg>
