<svg width="26" height="24" viewBox="0 0 26 24" fill="none" xmlns="http://www.w3.org/2000/svg">
<path d="M9.48364 9.9975L4.80642 5.31549L4.80523 5.3143C4.68257 5.18943 4.59914 5.03138 4.56525 4.85965C4.53136 4.68793 4.54848 4.51003 4.61451 4.34792L4.6149 4.34695C4.68199 4.18469 4.79582 4.04605 4.94191 3.94866C5.08792 3.85132 5.25956 3.79957 5.43504 3.8M9.48364 9.9975L21.2553 4.68938M9.48364 9.9975L7.35529 12.1219L7.01279 12.4637L7.49671 12.4634L13.0005 12.4599L13.2004 12.4598L13.2004 12.2599L13.2004 6.75189L13.2004 6.26766L12.8587 6.61075L10.7399 8.73808L7.57826 5.57947L18.8836 5.57947C19.3254 5.57947 19.6836 5.93764 19.6836 6.37947L19.6836 14.5944C19.6836 14.9124 19.8098 15.2174 20.0346 15.4424L21.9926 17.4028M9.48364 9.9975L21.9926 17.4028M5.43504 3.8C5.43514 3.8 5.43524 3.8 5.43533 3.8L5.43478 4L5.43478 3.8L5.43504 3.8ZM5.43504 3.8L20.5772 3.8L20.5793 3.8L20.5793 3.80001C20.8134 3.80242 21.037 3.89748 21.2012 4.0644C21.3653 4.23117 21.4566 4.45608 21.4553 4.68998M21.4553 4.68998C21.4553 4.69019 21.4553 4.69041 21.4553 4.69063L21.2553 4.68938M21.4553 4.68998L21.4553 4.68938L21.2553 4.68938M21.4553 4.68998L21.4553 14.122C21.4553 14.3342 21.5396 14.5376 21.6896 14.6877L23.1966 16.1947M21.2553 4.68938L21.2553 14.122C21.2553 14.3872 21.3607 14.6416 21.5482 14.8291L23.1379 16.4188M23.1966 16.1947C23.1563 16.2044 23.1162 16.2156 23.0765 16.2285L23.1379 16.4188M23.1966 16.1947C23.5092 16.1197 23.838 16.1387 24.1412 16.2509C24.4835 16.3775 24.7733 16.6156 24.9641 16.9268C25.1548 17.2381 25.2354 17.6044 25.1928 17.9669C25.1503 18.3295 24.9871 18.6672 24.7294 18.9258C24.4718 19.1844 24.1347 19.3489 23.7724 19.3928C23.41 19.4368 23.0434 19.3576 22.7314 19.1681C22.4194 18.9785 22.1803 18.6896 22.0523 18.3477C21.9389 18.0448 21.9186 17.7158 21.9926 17.4028M23.1966 16.1947L23.2793 16.2774L23.1379 16.4188M23.1379 16.4188L21.9926 17.4028" fill="#146AFF" stroke="#146AFF" stroke-width="0.4"/>
<path d="M15.2659 15.7801L13.1417 17.901L12.8004 18.2418L12.8004 17.7594L12.8004 12.2557L12.8004 12.0557L13.0004 12.0557L18.5042 12.0557L18.9865 12.0557L18.6457 12.397L16.5246 14.5213L21.195 19.1951C21.1952 19.1953 21.1955 19.1956 21.1957 19.1958C21.3213 19.3193 21.4071 19.4776 21.4418 19.6502C21.4767 19.8232 21.4587 20.0027 21.3904 20.1653C21.3904 20.1654 21.3903 20.1654 21.3903 20.1655L21.206 20.088C21.1533 20.2135 21.0649 20.3209 20.9517 20.3966C20.8386 20.4724 20.7057 20.5133 20.5695 20.5142L15.2659 15.7801ZM15.2659 15.7801L18.4217 18.9389L15.2659 15.7801Z" fill="#146AFF" stroke="#146AFF" stroke-width="0.4"/>
</svg>
