<svg width="24" height="24" viewBox="0 0 24 24" fill="none" xmlns="http://www.w3.org/2000/svg">
<path d="M21.638 5.33686L15.5143 0.908644L15.5434 2.90375L2.28378 2.90376L2.28385 5.3074L21.638 5.33686Z" fill="#146AFF"/>
<path fill-rule="evenodd" clip-rule="evenodd" d="M17.1721 12.0127C17.1721 15.0502 14.7097 17.5127 11.6721 17.5127C8.63454 17.5127 6.17212 15.0502 6.17212 12.0127C6.17212 8.97508 8.63454 6.51266 11.6721 6.51266C14.7097 6.51266 17.1721 8.97508 17.1721 12.0127ZM11.3055 10.1793C10.9004 10.1793 10.5721 10.5076 10.5721 10.9127C10.5721 11.3177 10.9004 11.646 11.3055 11.646V10.1793ZM12.0388 9.44599V9.07932H11.3055V9.44599C10.4954 9.44599 9.83879 10.1027 9.83879 10.9127C9.83879 11.7227 10.4954 12.3793 11.3055 12.3793V13.846C10.9867 13.846 10.7146 13.6425 10.6137 13.3572C10.5463 13.1662 10.3368 13.0661 10.1459 13.1336C9.95491 13.2011 9.85485 13.4106 9.92235 13.6015C10.1235 14.1707 10.6663 14.5793 11.3055 14.5793V14.946H12.0388V14.5793C12.8488 14.5793 13.5055 13.9227 13.5055 13.1127C13.5055 12.3027 12.8488 11.646 12.0388 11.646V10.1793C12.3575 10.1793 12.6296 10.3829 12.7305 10.6682C12.798 10.8591 13.0074 10.9592 13.1984 10.8917C13.3893 10.8242 13.4894 10.6147 13.4219 10.4238C13.2207 9.85464 12.678 9.44599 12.0388 9.44599ZM12.0388 12.3793V13.846C12.4438 13.846 12.7721 13.5177 12.7721 13.1127C12.7721 12.7076 12.4438 12.3793 12.0388 12.3793Z" fill="#146AFF"/>
<path d="M1.70473 18.6989L7.83863 23.1129L7.80496 21.1179L21.0645 21.0871L21.0589 18.6835L1.70473 18.6989Z" fill="#146AFF"/>
</svg>
