<svg width="24" height="24" viewBox="0 0 24 24" fill="none" xmlns="http://www.w3.org/2000/svg">
<path fill-rule="evenodd" clip-rule="evenodd" d="M11.5408 3.09688C11.8322 2.96771 12.1679 2.96771 12.4592 3.09688L21.3634 7.04425C21.7515 7.21631 22 7.58942 22 8C22 8.41058 21.7515 8.78369 21.3634 8.95575L12.4592 12.9031C12.1679 13.0323 11.8322 13.0323 11.5408 12.9031L2.63665 8.95575C2.24854 8.78369 2 8.41058 2 8C2 7.58942 2.24854 7.21631 2.63665 7.04425L11.5408 3.09688ZM5.71102 8L12 10.788L18.289 8L12 5.21197L5.71102 8Z" fill="#146AFF"/>
<path fill-rule="evenodd" clip-rule="evenodd" d="M2.10113 11.7075C2.35475 11.0971 3.00583 10.8306 3.55536 11.1123L12 15.4419L20.4446 11.1123C20.9942 10.8306 21.6452 11.0971 21.8989 11.7075C22.1525 12.3179 21.9126 13.0412 21.3631 13.3229L12.4592 17.888C12.1678 18.0373 11.8322 18.0373 11.5408 17.888L2.6369 13.3229C2.08737 13.0412 1.8475 12.3179 2.10113 11.7075Z" fill="#146AFF"/>
<path fill-rule="evenodd" clip-rule="evenodd" d="M2.10113 15.7075C2.35475 15.0971 3.00583 14.8306 3.55536 15.1123L12 19.4419L20.4446 15.1123C20.9942 14.8306 21.6452 15.0971 21.8989 15.7075C22.1525 16.3179 21.9126 17.0412 21.3631 17.3229L12.4592 21.888C12.1678 22.0373 11.8322 22.0373 11.5408 21.888L2.6369 17.3229C2.08737 17.0412 1.8475 16.3179 2.10113 15.7075Z" fill="#146AFF"/>
</svg>
