<svg width="24" height="24" viewBox="0 0 24 24" fill="none" xmlns="http://www.w3.org/2000/svg">
<path d="M5 7.68392V10.9946C7.10421 10.9946 8.38925 11.7847 8.76874 12.1798V6.58038L5 7.68392Z" fill="#94A3B8"/>
<path d="M10.9297 4.41417V12.7929C12.215 13.6104 12.7738 14.6049 12.8926 15C13.2066 13.9864 14.175 13.1063 14.6199 12.7929V3.31063L10.9297 4.41417Z" fill="#94A3B8"/>
<path d="M16.7416 1.06267V11.8937C18.0293 11.1744 19.4504 10.8583 20 10.7902V0L16.7416 1.06267Z" fill="#94A3B8"/>
<path d="M18.0303 13.504C16.4329 14.4168 14.8395 16.3832 14.7499 17.4619C14.7499 18.7455 18.8623 16.0475 20.9185 14.538C18.7315 16.1901 14.6714 19.6227 15.9265 20.1361C17.4954 20.7779 20.4549 19.6726 20.9185 17.9967C21.2893 16.656 22.9509 14.443 23.7353 13.504C22.4992 13.1237 19.6277 12.5912 18.0303 13.504Z" fill="#94A3B8"/>
<path d="M7.5769 13.0084C9.85279 13.8954 12.3341 16.1733 12.6674 17.5788C12.9242 19.2724 6.99547 16.5297 3.99902 14.9466C7.19532 16.6919 13.2024 20.4142 11.6604 21.341C9.73291 22.4995 5.6336 21.6291 4.69093 19.5101C3.93678 17.8148 1.31667 15.2249 0.100882 14.1419C1.6446 13.3945 5.30101 12.1214 7.5769 13.0084Z" fill="#94A3B8"/>
</svg>
