<svg width="24" height="24" viewBox="0 0 24 24" fill="none" xmlns="http://www.w3.org/2000/svg">
<g clip-path="url(#clip0_582_43337)">
<path d="M14.2112 8.83123L12.485 1.93709C12.3586 1.43235 11.6413 1.43235 11.5149 1.93709L9.7887 8.83123L11.9999 10.5534L14.2112 8.83123Z" fill="#94A3B8"/>
<path d="M15.1688 14.2112L22.063 12.485C22.5677 12.3586 22.5677 11.6413 22.063 11.515L15.1688 9.78873L13.4432 12L15.1688 14.2112Z" fill="#94A3B8"/>
<path d="M8.83123 9.78874L1.93709 11.515C1.43235 11.6413 1.43235 12.3586 1.93709 12.485L8.83123 14.2112L10.5534 12L8.83123 9.78874Z" fill="#94A3B8"/>
<path d="M9.7887 15.1688L11.5149 22.0629C11.6413 22.5677 12.3586 22.5677 12.485 22.0629L14.2112 15.1688L11.9999 13.4432L9.7887 15.1688Z" fill="#94A3B8"/>
<path d="M8.83109 14.2113L5.95333 17.9062C5.88096 17.9991 6.00074 18.1189 6.09367 18.0465L9.78861 15.1688L9.59573 14.4041L8.83109 14.2113Z" fill="#94A3B8"/>
<path d="M15.2089 14.2627C15.1846 14.2315 15.144 14.2175 15.1056 14.2272L14.4621 14.3895C14.4264 14.3985 14.3986 14.4264 14.3896 14.462L14.2273 15.1055C14.2176 15.144 14.2315 15.1845 14.2628 15.2089L17.9062 18.0465C17.9992 18.1189 18.119 17.9991 18.0466 17.9062L15.2089 14.2627Z" fill="#94A3B8"/>
<path d="M15.1688 9.78875L18.0466 6.09381C18.119 6.00088 17.9992 5.88109 17.9062 5.95347L14.2113 8.83123L14.4042 9.59587L15.1688 9.78875Z" fill="#94A3B8"/>
<path d="M9.78861 8.83126L6.09367 5.9535C6.00075 5.88112 5.88096 6.00091 5.95333 6.09384L8.83109 9.78878L9.59573 9.5959L9.78861 8.83126Z" fill="#94A3B8"/>
</g>
<defs>
<clipPath id="clip0_582_43337">
<rect width="24" height="24" fill="white"/>
</clipPath>
</defs>
</svg>
