<svg width="16" height="16" viewBox="0 0 16 16" fill="none" xmlns="http://www.w3.org/2000/svg">
<path d="M13.4882 15.6383L13.1244 16.0085L10.2589 13.191C10.264 13.1765 10.2691 13.162 10.2743 13.1472C10.4593 12.6035 10.3582 11.949 10.0228 11.5185C9.42174 10.7469 8.61057 10.3985 7.86491 10.2119C7.63397 9.25344 7.88755 8.20137 8.62989 7.44635L9.08031 6.98808L10.757 8.63669C10.4587 9.29993 10.574 10.0918 11.0601 10.6409L11.0894 10.6738C11.4857 11.1218 12.0862 11.347 12.7349 11.2918C12.9396 11.2749 13.1371 11.2299 13.3224 11.1608L13.4519 11.2876C14.6637 12.4791 14.68 14.4269 13.4885 15.638L13.4882 15.6383Z" fill="#94A3B8"/>
<path d="M14.9146 6.93278C14.9146 7.78833 14.7235 8.98712 14.0053 10.1467C13.7816 10.508 13.4136 10.7492 13.0106 10.8534C12.4328 11.004 11.7825 10.8739 11.3789 10.4178C11.3692 10.4063 11.3593 10.3957 11.3496 10.3843C10.9949 9.98335 10.8883 9.42758 11.0565 8.93127C11.0812 8.85761 11.1126 8.78486 11.1497 8.71422C11.4112 8.21882 11.6817 7.61444 11.7103 7.1918C11.7161 7.10577 11.7191 7.01912 11.7191 6.93248C11.7191 6.54486 11.6599 6.17112 11.5507 5.81973C11.5497 5.81671 11.5485 5.81309 11.5476 5.81007C11.5395 5.78441 11.531 5.75814 11.522 5.73218C11.1968 4.82984 10.5659 4.06275 9.71095 3.61444C8.31744 2.88358 6.73978 3.16101 5.63518 4.04161C4.79201 4.71361 4.22416 5.73731 4.22416 6.93248C4.22416 7.33641 4.28907 7.72524 4.40771 8.08992C4.65858 8.86003 5.16635 9.5438 5.8308 10.0072C6.16439 10.2397 6.69812 10.383 7.21465 10.4709C7.48937 10.5177 7.75533 10.5757 8.00892 10.6514C8.67941 10.851 9.26658 11.1746 9.7191 11.7554C9.9419 12.0416 10.0376 12.4806 9.94793 12.883C9.85827 13.2881 9.57993 13.6561 9.05586 13.791C9.04499 13.7938 9.03412 13.7947 9.02446 13.7962C6.41827 14.1941 3.73873 13.0279 2.24801 10.8555C2.21178 10.803 2.17646 10.7498 2.14175 10.6961C0.172538 7.64675 0.977972 3.53807 3.79397 1.39346C4.03669 1.20841 4.2939 1.03844 4.56559 0.884784C6.77933 -0.366537 9.57722 -0.284122 11.7191 1.09097C13.0628 1.95316 14.0947 3.2881 14.5822 4.80901C14.5888 4.82954 14.5955 4.85037 14.6018 4.87029C14.6024 4.8712 14.6027 4.87241 14.6027 4.87331C14.8053 5.52418 14.9146 6.2158 14.9146 6.93278Z" fill="#94A3B8"/>
</svg>
